<?xml version="1.0" encoding="utf-8"?>
<!-- Generator: Adobe Illustrator 22.0.1, SVG Export Plug-In . SVG Version: 6.00 Build 0)  -->
<svg version="1.1" id="Layer_1" xmlns="http://www.w3.org/2000/svg" xmlns:xlink="http://www.w3.org/1999/xlink" x="0px" y="0px"
	 viewBox="0 0 1024 1024" enable-background="new 0 0 1024 1024" xml:space="preserve">
<g>
	<path fill="#FFFFFF" d="M535,425c1.1-1.1,2.4-2.4,3.9-4c0.3,1.4,0.7,2.7,1.2,4c1.5,4.5,3.8,8.6,7,12.1
		c10.5,11.2,20.5,4.4,46.6,14.9c33.5,13.5,52.8,39.1,60.5,49.6c19.5,26.6,25.3,52.2,26.8,59.5c5.6,27.9,1.6,49.8-1,63.5
		c-2.9,15.2-9.2,47.8-33.7,76.4c-11.1,13-27.2,23.5-59.5,44.6c-30,19.7-37.1,20.9-48.6,34.7c-4.5,5.5-12,18.9-26.8,45.6
		c-15.1,27.3-16.8,31.6-23.8,37.7c-19.2,16.6-45.3,18.1-46.6,14.9c-1-2.5,13.3-5.8,23.8-20.8c11.5-16.6,10.3-35.7,9.9-41.7
		c-0.3-5.4-1.7-23.4-13.9-38.7c-12-15.1-24.5-15.3-50.6-26.8c-11.2-4.9-44.1-19.5-67.5-44.6c-20.8-22.3-28-46.6-32.7-62.5
		c-5-16.7-21.7-72.7,7-129.6c5.9-11.8,20.3-39.4,50.8-57.7c27.5-16.5,56.5-18.5,90.1-20.8c45-3.1,50.9,4.9,69.3-4.6
		C529.7,429.3,531.8,428,535,425z"/>
	<path fill="#FFFFFF" d="M775.7,346.6c-1.5,2.8-7.4,14-16.9,14.9c-12.4,1.2-16.9-16.6-37.7-31.7c-5.6-4.1-23.8-16.3-47.6-16.9
		c-27.4-0.7-47.7,14.5-57.5,21.8c-8.7,6.5-11.9,10.8-36.7,41.7c-20.9,26.1-31.5,39.2-38,46.4c-5.6-23.4,5.6-53.4,2.3-54.3
		c-4.3-1.1-18.1,52.7-27.8,51.6c-9.5-1.1-9.3-55.4-14.9-55.6c-5.9-0.2-10.5,59.6-16.9,59.5c-5.9-0.1-7.8-52.3-14.9-52.6
		c-7.1-0.3-11,53.2-20.8,53.6c-10.9,0.4-4.8-65.9-46.6-100.2c-28.3-23.2-69.8-24.5-78.4-24.8c-37-1.2-61.9,12-69.4,1
		c-5.5-8,6.6-16.6,7-38.7c0.4-30.2-21.8-43.7-14.9-55.6c6.8-11.7,28.6,0.9,55.6-12.9c23.8-12.2,26.9-32.5,37.7-30.8
		c18.4,3,19.2,63.5,34.7,64.5c8.2,0.5,10.7-16.2,23.8-18.8c6.2-1.3,12.6,1,18.3,4.8c1.4-2.8,2.4-5.9,2.5-9.8
		c1.1-29.2-45.6-44.7-40.7-66.5c3.1-13.8,22.7-11.8,28.8-28.8c7.4-20.5-16.9-35.6-9.9-52.5c7.1-17.4,43.4-27.1,64.5-14.9
		c17.9,10.4,16.2,31.6,35.7,37.7c12,3.7,16-3.3,27.8,1c15.1,5.5,27.3,24,27.8,41.7c0.5,21.4-16.4,27.5-11.9,44.6
		c2.6,9.9,8.7,9.6,17.9,28.8c4.7,9.9,7.4,15.5,7,22.8c-0.9,14.5-12.6,16.7-14.9,28.8c-1.4,7.3,1.7,13.1,6.1,18.8
		c4-5.3,9.2-9.8,15.7-10.8c19.6-3.2,31.1,27.4,48.6,23.8c13.2-2.7,10.7-21,30.7-33.7c13.6-8.6,34.3-12.6,43.6-4
		c9.7,8.9,0.2,24.7,8.9,31.7c12,9.6,35.4-15.3,53.6-5.9c9.4,4.9,12.2,17.1,17.8,41.7C779.3,323.5,781.8,335.1,775.7,346.6z"/>
</g>
</svg>
