<?xml version="1.0" encoding="utf-8"?>
<!-- Generator: Adobe Illustrator 22.0.1, SVG Export Plug-In . SVG Version: 6.00 Build 0)  -->
<svg version="1.1" id="Layer_1" xmlns="http://www.w3.org/2000/svg" xmlns:xlink="http://www.w3.org/1999/xlink" x="0px" y="0px"
	 viewBox="0 0 1024 1024" enable-background="new 0 0 1024 1024" xml:space="preserve">
<g>
	<path fill="#FFFFFF" d="M515.7,755.8c-14.7,18.1-63.3,0.9-85.6-7c-23.5-8.3-67.3-24.4-113.6-65.9c-43.4-38.9-64.9-78.7-88.4-122.1
		c-12.4-23-21.3-43.4-28.1-65.9c-4.1-13.5-9.3-31.4-11.2-54.7c-1.8-22.4,1.7-22.5-1.4-40.7c-1.7-9.8-4-17.5,0-21
		c3.5-3.2,9.4-0.7,19.6,1.4c14.9,3.1,20.5,1.6,32.3,2.8c28.9,3,66.3,19.3,70.1,21c60,26.6,101.4,70,108,77.2
		c41.4,44.3,58.6,86.9,75.8,129.1c4.6,11.2,11.5,47.7,25.3,120.7C519.9,737.6,521.7,748.4,515.7,755.8z"/>
	<path fill="#FFFFFF" d="M539.6,754.4c-3.5-4.1-6.5-11.1,7-64.5c16.6-65.6,24.9-98.4,44.9-133.3c30.6-53.3,70.1-88.3,99.6-109.4
		c23.1-17.8,59.2-41.4,108-57.5c37.9-12.5,56.8-18.7,68.7-9.8c33,24.5-4.1,139.8-54.7,218.9c-34.6,54-70.5,83.7-80,91.2
		C664.2,745,563,782.2,539.6,754.4z"/>
	<path fill="#FFFFFF" d="M528.3,643.6c7.3-0.2,3.6-30.4,19.6-68.7c25.1-60,67.4-66,77.2-113.6c3.3-16.1,1.7-31.1-9.8-67.3
		c-32.8-103.5-50.5-175.7-81.4-176.8c-23.6-0.8-44.7,52.8-87,159.9c-12.8,32.5-20.9,57.2-12.6,84.2c8.4,27.4,25.5,30.3,47.7,60.3
		C524.8,579.2,517.7,643.9,528.3,643.6z"/>
	<path fill="#FFFFFF" d="M650.4,431.7c14.8-12.6,28.3-19.7,37.9-23.9c17.7-7.6,28.3-7.8,32.3-16.8c2.6-5.8-0.5-8.7-5.6-30.9
		c-5.1-22-4-27.5-8.4-29.5c-6.1-2.8-11.8,5.8-33.7,19.6c-21.7,13.7-29.4,13.6-32.3,22.4c-2.4,7.3,1.5,11.4,5.6,29.5
		C649,414.7,650,425.1,650.4,431.7z"/>
	<path fill="#FFFFFF" d="M409.1,437.3c4.9-2,1.4-12.1,5.6-39.3c2.8-17.7,5.4-20.6,2.8-26.7c-4.2-9.8-13.9-8.7-33.7-19.6
		c-23.5-12.9-30.1-25.6-36.5-22.4c-4.4,2.2-2.3,8.6-5.6,32.3c-3,21.6-5.9,24.9-2.8,30.9c4.9,9.4,15,6.6,32.3,15.4
		C395.9,420.5,402.2,440.2,409.1,437.3z"/>
	<path fill="#FFFFFF" d="M466.6,785.3c0.1-5.8-25.3-4.5-73-22.4c-24.3-9.1-65.8-25.2-105.2-61.7c-12.8-11.8-35.3-33.1-53.3-67.3
		c-24.1-45.9-18.5-74.5-40.7-84.2c-5.5-2.4-10.7-2.8-61.7,12.6c-58.3,17.6-64.9,22.2-67.3,29.5c-4,11.7,5.2,24,29.5,53.3
		c48,58,72.1,87,87,98.2c19.1,14.3,54.6,37.3,103.8,50.5C376.3,818,466.5,796.2,466.6,785.3z"/>
	<path fill="#FFFFFF" d="M585.9,781.1c0.5-4.4,21-0.6,57.5-11.2c26.7-7.8,46-18.6,60.3-26.7c24.5-13.8,41.1-27,54.7-37.9
		c23.8-19.1,37.6-30.2,50.5-46.3c39.6-49.7,25-90.7,53.3-102.4c6.5-2.7,26.9,2.8,67.3,14c50.6,14,56.3,17.5,58.9,23.9
		c5.9,14.1-8.6,33-37.9,70.1c-19.9,25.2-35.6,45.1-63.1,67.3c-9.1,7.3-37.3,29.3-80,47.7c-21.6,9.3-54.5,23.5-98.2,26.7
		C643.8,811,585,788.6,585.9,781.1z"/>
</g>
</svg>
