<?xml version="1.0" encoding="utf-8"?>
<!-- Generator: Adobe Illustrator 22.0.1, SVG Export Plug-In . SVG Version: 6.00 Build 0)  -->
<svg version="1.1" id="Layer_1" xmlns="http://www.w3.org/2000/svg" xmlns:xlink="http://www.w3.org/1999/xlink" x="0px" y="0px"
	 viewBox="0 0 1024 1024" enable-background="new 0 0 1024 1024" xml:space="preserve">
<path fill="#C4C0A7" d="M104.9,490.2c-8.8-73.7,9.4-193.9,84.3-240.2c70.3-43.5,138.8,10.4,231.8-42.1c78-44.1,76.4-108.5,118-109.6
	c94.5-2.4,169.4,328,177,362.4c44.6,202.1,75.2,340.5,8.4,396.2C598.2,962,137,760.5,104.9,490.2z"/>
<path fill="#86AA00" stroke="#000000" stroke-miterlimit="10" d="M536.5,949.8c-8.2-18.9-17.9-43.4-26.8-72.6
	c-13.7-45.1-19.3-80.5-21-91.8c-6-40-10-66.9-5.7-103.2c1-8.6,5.6-44.2,22.9-86c13.2-31.7,20.6-35.5,30.6-66.9
	c6.8-21.3,8.2-34.7,17.2-53.5c0.3-0.6,4-8.3,6.9-19.2c3.5-13.3,2.8-20.6,1.7-25.6c-1.2-5-2.5-10.4-6.6-12.4
	c-7.5-3.6-19.2,7-21.5,9.1c-17,15.4-18.6,40.7-19.8,62.8c-5.6,103.8-5.3,119.8-3.3,142.9c0.8,8.7,3.1,33.2,13.2,62.8
	c8.2,24.1,15.5,33.4,22.3,39.7c2.6,2.4,13.6,12.1,34.7,17.3c44.1,11,85.1-9.3,110.7-22.3c31.2-15.9,66.5-41.5,62.8-49.6
	c-1.4-3.2-8.1-1.9-21.5-1.7c-34.2,0.7-59.7-6-81-11.6c-11.5-3-30.5-8.8-49.6-22.3c-14.2-10.1-17-16.4-16.5-21.5s4.8-9.9,9.1-12.4
	c5.3-3.1,10.8-2.6,12.4-2.5c20.9,1.6,41.9-1.5,62.8,0c50.7,3.7,44.9-3.4,76,1.7c14.7,2.4,23.7,5.2,35.5,0.8
	c15.9-5.9,25-20.3,28.9-26.4c8.3-13.1,11-25.3,12.4-32.2c15.5-75.1,19.4-85.8,16.5-86.7c-2-0.7-4,4.6-12.4,13.2
	c-9.6,9.8-17.7,13.9-32.2,22.3c-35,20.1-28.1,19.3-42.1,25.6c-14.6,6.5-27.1,9-52,14c-13.6,2.7-24.9,4.3-37.2,0
	c-4.3-1.5-12-4.3-14-10.7c-2.1-6.6,2.8-13.5,5-16.5c14.3-19.7,50.1-30.9,83.4-44.6c50.5-20.8,62.1-33.7,67.7-41.3
	c10.2-13.7,13.7-26.9,16.5-37.2c10-37,5.1-79.7-5.8-81.8c-3.7-0.7-6.7,3.5-13.2,10.7c-9.5,10.7-22.6,21.4-48.7,43
	c-9.4,7.7-29.8,23.7-58.7,37.2c-12.9,6-26.4,12.2-29.7,8.3c-4.5-5.4,13-27,24-40.5c25.5-31.4,38.7-38.2,66.9-71.9
	c15.7-18.7,22.1-29.2,26.4-42.1c2.1-6.2,7-21.4,5-40.5c-1.9-17.6-7.8-20.2-25.6-59.5c-11.7-25.9-17.6-38.8-19-51.2
	c-1.9-17.1,0.7-31.8-5-33.9c-3.8-1.4-8.2,4-13.2,8.3c-14.2,12.1-30.5,13.4-59.5,15.7c-34.4,2.8-43.7-4.3-62.8,5
	c-12.6,6.1-17.1,13.4-19,17.3c-4.2,8.9-3,17.5-2.5,21.5c0.7,5.7-2.3,23.6-8.3,59.5c-4.3,25.9-13.8,82.7-24.8,82.6
	c-5.2,0-9.1-12.7-14.9-31.4c-3.1-9.9-7.9-25.6-9.1-45.4c-3.5-58,27.4-100.9,16.5-108.2c-1.3-0.9-2.8-0.9-11.6,1.7
	c-27,8-40.5,11.9-55.3,24c-8.5,6.9-20.4,16.6-26.4,33c-6.5,17.8-2.8,34.1,0,45.4c18.1,74.3,29.7,107.4,29.7,107.4
	c26.9,76.2,30.5,90,27.3,91.7c-2.6,1.4-12.5-10.4-32.2-33.9c-18.4-22-27.7-33-33.9-43c-9.9-16-15.4-29.9-26.4-57.8
	c-8.1-20.4-12.1-30.7-14-39.7c-7-32.3-1.4-55.3-9.1-57.8c-4-1.3-9,3.9-12.4,7.4c-52,54-63.6,57.2-66.9,78.5
	c-1.8,11.9,0.3,20.7,4.1,35.5c10.7,41.5,30.7,66.2,66.1,116.5c50.2,71.1,50.5,78.9,47.9,81.8c-6.4,7.3-37.2-8.9-54.5-20.7
	c-18.3-12.4-34.2-28.3-51.2-52.9c-38.3-55.4-45.2-101.5-55.3-100c-5.3,0.8-6.7,13.7-9.9,34.7c-12.5,82.6-17.8,71.9-23.1,128.9
	c-3.9,41.4-5.7,62.6,0,88.4c7.9,35.8,23.2,57.3,27.3,62.8c6.6,8.8,18.6,24.8,40.5,37.2c8.6,4.9,31,17.2,61.1,15.7
	c27.9-1.4,47.3-13.9,65.3-25.6c20.9-13.5,35.1-28.5,43.8-38.8"/>
</svg>
