<?xml version="1.0" encoding="utf-8"?>
<!-- Generator: Adobe Illustrator 22.0.1, SVG Export Plug-In . SVG Version: 6.00 Build 0)  -->
<svg version="1.1" id="Layer_1" xmlns="http://www.w3.org/2000/svg" xmlns:xlink="http://www.w3.org/1999/xlink" x="0px" y="0px"
	 viewBox="0 0 1024 1024" enable-background="new 0 0 1024 1024" xml:space="preserve">
<g>
	<path fill="#FFFFFF" d="M804.3,433c-6.3-15.3-20.3-48.4-55-73.7c-5.9-4.3-30.9-22-68.4-28.2c-32.9-5.4-58.8,0.7-95.2,9.4
		c-50.5,12-54.7,21.9-84.5,21.4c-20.8-0.3-21.1-5.1-68.4-16.1c-47-10.9-70.5-16.3-95.2-12.1c-36.5,6.3-61.1,27.5-72.4,37.5
		c-42.9,38-53.1,86.5-56.3,103.2c-8.3,42.5,0,76.7,5.4,99.2c7.2,29.9,17.6,51.2,25.5,67c19.1,38.5,28.3,41.1,59,89.8
		c29,46,25,50.4,53.6,92.5c27.8,40.9,45.6,57.6,55,65.7c17.4,15.1,33.9,29.4,60.4,37.6c35.7,11,66.4,3.5,80.4,0
		c37.9-9.7,62.2-30.3,75.1-41.6c20.6-18,28.3-31.4,61.7-84.5c59.6-94.8,59.2-90.4,76.4-122c26.5-48.5,39.8-72.8,47-100.6
		C815.4,550.4,829.2,493.7,804.3,433z M313.9,599.7c-4.9,0-8.9-11.1-8.9-24.9c0-13.7,4-24.8,8.9-24.8c4.9,0,8.9,11.1,8.9,24.8
		C322.8,588.6,318.8,599.7,313.9,599.7z M382.6,723.2c-4.9,0-8.9-11.1-8.9-24.9c0-13.7,4-24.8,8.9-24.8c4.9,0,8.9,11.1,8.9,24.8
		C391.5,712.1,387.5,723.2,382.6,723.2z M382.6,471.4c-4.9,0-8.9-11.1-8.9-24.9c0-13.7,4-24.8,8.9-24.8c4.9,0,8.9,11.1,8.9,24.8
		C391.5,460.3,387.5,471.4,382.6,471.4z M443.8,848.5c-4.9,0-8.8-11.1-8.8-24.9s3.9-24.9,8.8-24.9c4.9,0,8.9,11.1,8.9,24.9
		S448.7,848.5,443.8,848.5z M443.8,595.7c-4.9,0-8.8-11.1-8.8-24.8c0-13.7,3.9-24.9,8.8-24.9c4.9,0,8.9,11.1,8.9,24.9
		C452.6,584.6,448.7,595.7,443.8,595.7z M512,723.2c-4.9,0-8.9-11.1-8.9-24.9c0-13.7,4-24.8,8.9-24.8c4.9,0,8.8,11.1,8.8,24.8
		C520.8,712.1,516.9,723.2,512,723.2z M512,467.5c-4.9,0-8.9-11.1-8.9-24.9c0-13.7,4-24.9,8.9-24.9c4.9,0,8.8,11.1,8.8,24.9
		C520.8,456.4,516.9,467.5,512,467.5z M574.2,848.5c-4.9,0-8.8-11.1-8.8-24.9s3.9-24.9,8.8-24.9s8.9,11.1,8.9,24.9
		S579.1,848.5,574.2,848.5z M574.2,595.7c-4.9,0-8.8-11.1-8.8-24.8c0-13.7,3.9-24.9,8.8-24.9s8.9,11.1,8.9,24.9
		C583.1,584.6,579.1,595.7,574.2,595.7z M642.1,723.2c-4.9,0-8.9-11.1-8.9-24.9c0-13.7,4-24.8,8.9-24.8c4.9,0,8.9,11.1,8.9,24.8
		C650.9,712.1,647,723.2,642.1,723.2z M642.1,467.5c-4.9,0-8.9-11.1-8.9-24.9c0-13.7,4-24.9,8.9-24.9c4.9,0,8.9,11.1,8.9,24.9
		C650.9,456.4,647,467.5,642.1,467.5z M703.4,595.7c-4.9,0-8.8-11.1-8.8-24.8c0-13.7,3.9-24.9,8.8-24.9c4.9,0,8.9,11.1,8.9,24.9
		C712.2,584.6,708.2,595.7,703.4,595.7z"/>
	<path fill="#FFFFFF" d="M502.8,323.8c-13,19.1-66.7,4.6-95.5-7.3c-71.2-29.3-128.6-99-115.1-122.2c12.6-21.5,84.8-0.2,93.1,2.3
		c15.7,4.6,47.4,14.4,76.3,42.7C483.7,261.1,515.7,305,502.8,323.8z"/>
	<path fill="#FFFFFF" d="M509.3,327.1c-22.3,6.2-54-39.5-68.4-67c-35.7-68.3-34.6-158.6-9.4-167.6c23.5-8.4,65,54.5,69.7,61.7
		c9,13.6,27,41.5,30.8,81.8C535.1,266.8,531.3,321,509.3,327.1z"/>
	<path fill="#FFFFFF" d="M501.2,327.5c-20.9-10-14.6-65.3-7.3-95.5c18.2-74.8,78.5-142.1,103.4-132.3c23.2,9.2,13,83.8,11.8,92.3
		c-2.2,16.2-7.1,49-30.7,81.8C560.3,299.1,521.8,337.4,501.2,327.5z"/>
	<path fill="#FFFFFF" d="M507.7,321c-10.9-20.4,26.8-61.3,50.6-81.3c58.9-49.6,147.3-68.3,161.6-45.6c13.3,21.1-39.1,75.3-45,81.5
		c-11.3,11.7-34.7,35.4-73.1,47.9C572.2,333,518.5,341.1,507.7,321z"/>
</g>
</svg>
