<?xml version="1.0" encoding="utf-8"?>
<!-- Generator: Adobe Illustrator 22.0.1, SVG Export Plug-In . SVG Version: 6.00 Build 0)  -->
<svg version="1.1" id="Layer_1" xmlns="http://www.w3.org/2000/svg" xmlns:xlink="http://www.w3.org/1999/xlink" x="0px" y="0px"
	 viewBox="0 0 1024 1024" enable-background="new 0 0 1024 1024" xml:space="preserve">
<g>
	<path fill="#FFFFFF" stroke="#FFFFFF" stroke-miterlimit="10" d="M489.6,744.7c-60.6-3.2-101.7-34.4-123.6-51
		C276.9,626.1,258,526.6,256,515.1c-17.9-103.2,28.5-180.8,47.1-211.9c22-36.7,66.6-111.5,153.1-131.5c16.6-3.8,59.8-11.5,107.9,5.9
		c64.1,23.1,95.5,75.4,119.7,115.8c27.9,46.6,74.2,123.8,56.9,225.7c-1.2,6.8-25.5,137.7-139.3,198.2
		C583.1,726.9,543.2,747.5,489.6,744.7z"/>
	<line fill="#FFFFFF" stroke="#FFFFFF" stroke-width="21" stroke-miterlimit="10" x1="437.7" y1="914.7" x2="557.4" y2="914.7"/>
	<line fill="#FFFFFF" stroke="#FFFFFF" stroke-width="21" stroke-miterlimit="10" x1="501.3" y1="744" x2="501.3" y2="914.7"/>
	<line fill="none" stroke="#000000" stroke-width="8" stroke-miterlimit="10" x1="500.6" y1="747.3" x2="500.6" y2="329.6"/>
	<path fill="none" stroke="#000000" stroke-width="8" stroke-miterlimit="10" d="M602.5,405.1c0,6.2-0.8,36.3-24.8,60.7
		c-27.1,27.5-62.3,25.9-67.6,25.6"/>
	<path fill="none" stroke="#000000" stroke-width="8" stroke-miterlimit="10" d="M510.6,685.2c13.5,0.6,37.2-0.2,62.6-12.1
		c33.4-15.6,50.3-41.1,61.2-57.6c26.3-39.8,32.1-80.1,33.4-103.1"/>
	<path fill="none" stroke="#000000" stroke-width="8" stroke-miterlimit="10" d="M488.9,595.6c-12.6-0.7-36-4-58.3-19.9
		c-49.7-35.4-47.9-100.1-47.7-106"/>
</g>
</svg>
